<svg
    viewBox="0 0 32 32"
    xmlns="http://www.w3.org/2000/svg"
>
    <path
        d="M16 2C8.268 2 2 8.268 2 16s6.268 14 14 14 14-6.268 14-14S23.732 2 16 2z"
        fill="none"
        strokeWidth="2"
        stroke="currentColor"
    />
    <path
        d="M10 13a2 2 0 100-4 2 2 0 000 4z"
        fill="currentColor"
    />
    <path
        d="M22 13a2 2 0 100-4 2 2 0 000 4z"
        fill="currentColor"
    />
    <path
        d="M16 23a6 6 0 100-12 6 6 0 000 12z"
        stroke="currentColor"
        strokeWidth="2"
        fill="none"
    />
    <path
        d="M16 19a2 2 0 100-4 2 2 0 000 4z"
        fill="currentColor"
    />
</svg>